Coordinates
version=1
nRows=16
nColumns=33
inDegrees=yes

Units are S.I. units (second, meters, Newtons, ...)
Angles are in degrees.

endheader
time	ground_thorax_rot_x	ground_thorax_rot_y	ground_thorax_rot_z	ground_thorax_tx	ground_thorax_ty	ground_thorax_tz	clav_prot_r	clav_elev_r	scapula_abduction_r	scapula_elevation_r	scapula_upward_rot_r	scapula_winging_r	shoulder_elv_r	plane_of_elev_r	axial_rot_r	elbow_flexion_r	pro_sup_r	wrist_flex_r	wrist_dev_r	clav_prot_l	clav_elev_l	scapula_abduction_l	scapula_elevation_l	scapula_upward_rot_l	scapula_winging_l	shoulder_elv_l	plane_of_elev_l	axial_rot_l	elbow_flexion_l	pro_sup_l	wrist_flex_l	wrist_dev_l
      4.36000000	    -38.75637963	     -8.33886367	     16.19394278	   -232.47424578	    839.03526147	      4.52076051	      6.40840313	    -45.00000000	     37.54059086	    -45.00000000	    -33.76798985	   2417.80175346	  -1907.68653979	    146.14873980	   -120.84406916	   1452.83216985	     21.22536833	     19.52893638	      4.71434328	     14.90927956	     37.30609819	    -37.76959137	    -45.00000000	    -45.00000000	     84.99831203	     73.32768228	     25.32496777	    -30.40815009	   2531.36912311	     12.62761841	      4.11622830	    -19.97529869
      4.37000000	    -38.69999808	     -8.36637559	     16.27844084	   -230.60302855	    838.25770210	      4.48057722	      6.38649798	    -45.00000000	     37.62213134	    -45.00000000	    -33.33161755	   2417.89171419	  -1907.78809173	    146.18194612	   -120.89438792	   1452.73569610	     20.13022488	     19.56761055	      4.99493314	     14.93240761	     37.31270286	    -37.89223661	    -45.00000000	    -45.00000000	     84.88595372	     73.30866254	     25.39563671	    -30.16482672	   2531.34201829	     11.84229130	      4.33750208	    -19.98900261
      4.38000000	    -38.67048632	     -8.40676124	     16.35546999	   -228.63472391	    837.41094123	      4.43895622	      6.23570128	    -45.00000000	     37.70003617	    -45.00000000	    -32.82514864	   2418.01650627	  -1907.88045673	    146.25769497	   -120.89789415	   1452.70252103	     18.96278885	     19.62471354	      5.31752330	     15.13062749	     37.38676716	    -38.07888805	    -45.00000000	    -45.00000000	     84.87116301	     73.15451383	     25.49734692	    -29.96406807	   2531.31222983	     11.00019444	      4.52756434	    -19.98688663
      4.39000000	    -38.62441785	     -8.46485784	     16.43012507	   -226.56857538	    836.49192971	      4.39769374	      6.26329580	    -45.00000000	     37.81222415	    -45.00000000	    -32.37892327	   2418.12834694	  -1908.03572368	    146.29893051	   -120.87345141	   1452.59187829	     17.83404039	     19.63462687	      5.62684991	     15.11433793	     37.37592147	    -38.15388766	    -45.00000000	    -45.00000000	     84.73992747	     73.13964702	     25.60540811	    -29.74327361	   2531.25977316	     10.17691675	      4.77175897	    -19.97820409
      4.40000000	    -38.59345695	     -8.53867474	     16.54184077	   -224.40334893	    835.49815054	      4.35803940	      6.02060513	    -45.00000000	     37.85943706	    -45.00000000	    -31.78339077	   2418.27810079	  -1908.11501410	    146.44058850	   -120.82537989	   1452.59903435	     16.60600338	     19.68001821	      5.98522424	     15.41036023	     37.52219225	    -38.36381250	    -45.00000000	    -45.00000000	     84.66840943	     73.00191321	     25.63297396	    -29.47392663	   2531.21589575	      9.26547286	      5.00439078	    -19.96639515
      4.41000000	    -38.47319846	     -8.91785510	     16.86307008	   -222.13725986	    834.42925809	      4.32064010	      6.47040281	    -45.00000000	     38.12634916	    -45.00000000	    -31.69030712	   2418.33835950	  -1908.27981892	    146.41886936	   -120.72238254	   1452.46185245	     15.70104038	     19.60980278	      6.23892259	     14.58453013	     37.25584104	    -38.01436543	    -45.00000000	    -45.00000000	     84.13517512	     73.44253543	     25.46230576	    -29.29430785	   2531.21719237	      8.58574576	      5.31529518	    -19.95318639
      4.42000000	    -38.51328594	     -8.69467104	     16.67783198	   -219.77008794	    833.28444033	      4.28556559	      5.96331478	    -45.00000000	     38.05275445	    -45.00000000	    -30.90923954	   2418.57531685	  -1908.41070782	    146.51244814	   -120.73520187	   1452.42642015	     14.58917529	     19.64381340	      6.63237857	     15.51262053	     37.52669493	    -38.60334197	    -45.00000000	    -45.00000000	     84.42026876	     72.87103917	     25.83047592	    -28.98990502	   2531.12578518	      7.72356912	      5.49651749	    -19.90759962
      4.43000000	    -38.47883680	     -8.81644077	     16.78544450	   -217.29894742	    832.06411312	      4.25250297	      5.99540419	    -45.00000000	     38.18308717	    -45.00000000	    -30.44332664	   2418.69854554	  -1908.61190711	    146.55377149	   -120.59375595	   1452.30825701	     13.59191043	     19.59043809	      6.92444372	     15.47853124	     37.53261589	    -38.66562667	    -45.00000000	    -45.00000000	     84.24320708	     72.84774357	     25.97634519	    -28.77775417	   2531.07284905	      6.94717136	      5.78747856	    -19.86159575
      4.44000000	    -38.43085448	     -8.90002487	     16.89036744	   -214.72866920	    830.77029030	      4.22097987	      5.89170660	    -45.00000000	     38.27118662	    -45.00000000	    -29.95854492	   2418.83674307	  -1908.77825552	    146.65534452	   -120.46009485	   1452.25712457	     12.66091849	     19.55030059	      7.26004528	     15.59625161	     37.58954313	    -38.82146227	    -45.00000000	    -45.00000000	     84.12456250	     72.74208748	     26.04177208	    -28.55003358	   2531.03006299	      6.20226777	      6.03199117	    -19.80707187
      4.45000000	    -38.39106115	     -9.07730686	     17.06084858	   -212.05511761	    829.40048488	      4.19041697	      5.97615309	    -45.00000000	     38.38713776	    -45.00000000	    -29.53118267	   2418.95278484	  -1908.99662480	    146.71094938	   -120.36753291	   1452.14682484	     11.86188504	     19.47203273	      7.55266439	     15.43526538	     37.58930337	    -38.87870535	    -45.00000000	    -45.00000000	     83.92295126	     72.76679034	     26.09807722	    -28.44580423	   2530.97932171	      5.57497401	      6.30596758	    -19.74299282
      4.46000000	    -38.31923032	     -9.24947108	     17.15760280	   -209.28761659	    827.95744981	      4.16030749	      5.83765314	    -45.00000000	     38.48404845	    -45.00000000	    -29.12058345	   2419.13810951	  -1909.14091034	    146.79874478	   -120.17835939	   1452.18199201	     11.14739820	     19.43400475	      7.88479103	     15.66885771	     37.63781606	    -38.99121922	    -45.00000000	    -45.00000000	     83.80701338	     72.57732164	     26.21802274	    -28.14078443	   2530.96781402	      4.95246154	      6.50426790	    -19.67789626
      4.47000000	    -38.32675054	     -9.30844605	     17.26439620	   -206.42277317	    826.43771575	      4.13029730	      5.71210274	    -45.00000000	     38.52322785	    -45.00000000	    -28.62178166	   2419.29760842	  -1909.36347654	    146.89839148	   -120.06525248	   1452.05651712	     10.51828215	     19.34375989	      8.19097041	     15.83398539	     37.75479602	    -39.21692478	    -45.00000000	    -44.91399075	     83.66470469	     72.43397666	     26.29863141	    -28.02559388	   2530.86598009	      4.42275022	      6.76264584	    -19.59368056
      4.48000000	    -38.28606507	     -9.42726750	     17.34552207	   -203.47198561	    824.84577439	      4.10019800	      5.45516856	    -45.00000000	     38.57662213	    -45.00000000	    -28.02557253	   2419.50234963	  -1909.53444504	    147.07026793	   -119.79214344	   1452.05909094	      9.98746722	     19.27828001	      8.53755952	     16.11601495	     37.93158230	    -39.32686151	    -45.00000000	    -44.63834780	     83.40217702	     72.20817370	     26.21403308	    -27.89592580	   2530.85122580	      3.91004484	      6.97958322	    -19.52143070
      4.49000000	    -38.28188492	     -9.52874053	     17.42431028	   -200.43302089	    823.18103359	      4.07013762	      5.33223813	    -45.00000000	     38.63040865	    -45.00000000	    -27.52821895	   2419.67995336	  -1909.78197020	    147.17676943	   -119.57176850	   1451.98350388	      9.58218725	     19.18198180	      8.82359373	     16.26489972	     38.04165393	    -39.45539651	    -45.00000000	    -44.41826266	     83.18761783	     72.05449430	     26.22536920	    -27.81187488	   2530.77891311	      3.48368859	      7.22242587	    -19.42841741
      4.50000000	    -38.28090265	     -9.66211443	     17.49211609	   -197.30956217	    821.44754376	      4.04053501	      5.32616960	    -45.00000000	     38.73430010	    -45.00000000	    -27.15162927	   2419.84495384	  -1910.07133238	    147.26087083	   -119.38194448	   1451.94636054	      9.32575246	     19.09261999	      9.05514268	     16.26242756	     38.10157898	    -39.53121246	    -45.00000000	    -44.19926864	     83.01759033	     71.86713764	     26.30349567	    -27.77743165	   2530.71975749	      3.17126473	      7.47399361	    -19.33196877
      4.51000000	    -38.27089856	     -9.78202577	     17.59081339	   -194.10357807	    819.64939700	      4.01269809	      5.20809654	    -45.00000000	     38.76936697	    -45.00000000	    -26.69300822	   2420.02595509	  -1910.31086833	    147.35647782	   -119.20072142	   1451.86486396	      9.20232805	     18.98863756	      9.30264400	     16.39402896	     38.21519101	    -39.65860256	    -45.00000000	    -43.97443694	     82.78558672	     71.68264837	     26.30281598	    -27.67202363	   2530.64692923	      2.92754263	      7.70638940	    -19.23045216
